<svg xmlns="http://www.w3.org/2000/svg" viewBox="0 0 270 69.905">
  <defs>
    <style>
      .cls-1 {
        fill: #051c2c;
      }

      .cls-2 {
        fill: #4f5e73;
      }

      .cls-3, .cls-4 {
        fill: #0ac668;
      }

      .cls-4 {
        opacity: 0.7;
      }
    </style>
  </defs>
  <g id="Group_1" data-name="Group 1" transform="translate(0.075 0.075)">
    <g id="Group_155" data-name="Group 155" transform="translate(89.002 12.23)">
      <g id="Group_153" data-name="Group 153">
        <path id="Path_247" data-name="Path 247" class="cls-1" d="M410.121,59.1h4.387V79.9H425v3.914H410.1V59.1Z" transform="translate(-410.1 -58.455)"/>
        <path id="Path_248" data-name="Path 248" class="cls-1" d="M509.4,59.1h4.387V83.809H509.4Z" transform="translate(-488.045 -58.455)"/>
        <path id="Path_249" data-name="Path 249" class="cls-1" d="M557.1,59.1h4.925l6.8,19.011h.129L575.831,59.1h4.753L570.67,83.809h-3.806Z" transform="translate(-525.487 -58.455)"/>
        <path id="Path_250" data-name="Path 250" class="cls-1" d="M693.5,59.1h16.365v3.828H697.909v6.28h11.333v3.7H697.909v6.968h12.6v3.935H693.521V59.1Z" transform="translate(-632.554 -58.455)"/>
        <path id="Path_251" data-name="Path 251" class="cls-1" d="M808.8,83.809H806.28V61.337H798V59.1h19.054v2.237h-8.28V83.809Z" transform="translate(-714.581 -58.455)"/>
        <path id="Path_252" data-name="Path 252" class="cls-1" d="M922.516,81.573h13.226v2.237H920V59.1h15.312v2.237h-12.8v8.516h11.957v2.194H922.516Z" transform="translate(-810.345 -58.455)"/>
        <path id="Path_253" data-name="Path 253" class="cls-1" d="M1048.229,77.476a10.835,10.835,0,0,1-9.247,4.6c-7.462,0-12.882-5.484-12.882-12.989A12.574,12.574,0,0,1,1038.982,56.1c3.634,0,7.075,1.505,8.8,3.914l-2.086,1.527a8.1,8.1,0,0,0-6.667-3.247c-6.387,0-10.258,5.032-10.258,10.774s3.914,10.774,10.258,10.774a8.449,8.449,0,0,0,7.247-3.656Z" transform="translate(-893.628 -56.1)"/>
        <path id="Path_254" data-name="Path 254" class="cls-1" d="M1165.321,59.1h2.516V69.81H1181.3V59.1h2.516V83.809H1181.3v-11.7h-13.484v11.7H1165.3V59.1Z" transform="translate(-1002.893 -58.455)"/>
      </g>
      <g id="Group_154" data-name="Group 154" transform="translate(0.022 39.376)">
        <path id="Path_255" data-name="Path 255" class="cls-2" d="M411.189,249.1H410.2l3.806-8.8h.86l3.785,8.8h-.989l-.968-2.3h-4.538Zm1.29-3.14h3.871l-1.935-4.667Z" transform="translate(-410.2 -240.064)"/>
        <path id="Path_256" data-name="Path 256" class="cls-2" d="M477.166,247.569h0l2.946-7.269h1.355v8.8h-.882v-7.634h-.021l-3.183,7.634h-.473l-3.183-7.634H473.7V249.1h-.9v-8.8h1.355Z" transform="translate(-459.338 -240.063)"/>
        <path id="Path_257" data-name="Path 257" class="cls-2" d="M541.222,240.3h2.473c1.785,0,2.968.774,2.968,2.344s-1.2,2.366-2.989,2.366H542.1V249.1h-.9v-8.8Zm.9,3.957h1.505c1.4,0,2.151-.559,2.151-1.591,0-1.075-.8-1.57-2.151-1.57h-1.505Z" transform="translate(-513.028 -240.063)"/>
        <path id="Path_258" data-name="Path 258" class="cls-2" d="M593.082,248.3h4.107v.8H592.2v-8.8h.9v8Z" transform="translate(-553.06 -240.064)"/>
        <path id="Path_259" data-name="Path 259" class="cls-2" d="M639.7,249.1h-.9v-8.8h.9Z" transform="translate(-589.639 -240.064)"/>
        <path id="Path_260" data-name="Path 260" class="cls-2" d="M672,249.1h-.9v-8.8h5.312v.8H672v3.054h4.107v.774H672Z" transform="translate(-614.993 -240.064)"/>
        <path id="Path_261" data-name="Path 261" class="cls-2" d="M719.694,249.1h-.9v-3.785L715.5,240.3h1.118l2.645,4.258,2.667-4.258h1.032l-3.269,5.011Z" transform="translate(-649.845 -240.063)"/>
        <path id="Path_262" data-name="Path 262" class="cls-2" d="M800.694,249.1h-.9v-3.785L796.5,240.3h1.118l2.645,4.258,2.667-4.258h1.032l-3.269,5.011Z" transform="translate(-713.425 -240.063)"/>
        <path id="Path_263" data-name="Path 263" class="cls-2" d="M855.081,248.447a4.624,4.624,0,1,1,4.581-4.624A4.476,4.476,0,0,1,855.081,248.447Zm0-8.452a3.833,3.833,0,1,0,3.634,3.828A3.621,3.621,0,0,0,855.081,240Z" transform="translate(-755.812 -239.2)"/>
        <path id="Path_264" data-name="Path 264" class="cls-2" d="M918.8,245.805V240.3h.9v5.419c0,1.419.6,2.8,2.387,2.8s2.387-1.4,2.387-2.8V240.3h.9v5.505c0,1.462-.667,3.505-3.29,3.505S918.8,247.268,918.8,245.805Z" transform="translate(-809.425 -240.063)"/>
        <path id="Path_265" data-name="Path 265" class="cls-2" d="M978.2,249.1h-.9v-8.8h2.581c1.742,0,3.011.624,3.011,2.344a2.271,2.271,0,0,1-2.258,2.258l2.559,4.194h-1.1l-2.43-4.107h-1.484V249.1Zm0-4.882h1.548c1.419,0,2.236-.516,2.236-1.57,0-1.161-.882-1.57-2.215-1.57h-1.591v3.14Z" transform="translate(-855.344 -240.064)"/>
        <path id="Path_266" data-name="Path 266" class="cls-2" d="M1060.8,241.3h2.839a4.306,4.306,0,1,1,0,8.6H1060.8Zm.882,7.806h1.742a3.519,3.519,0,1,0,0-7.011h-1.742Z" transform="translate(-920.887 -240.848)"/>
        <path id="Path_267" data-name="Path 267" class="cls-2" d="M1115.268,249.881h-.968l3.7-8.581h.839l3.677,8.581h-.967l-.946-2.258h-4.43Zm1.269-3.054h3.785l-1.893-4.559Z" transform="translate(-962.882 -240.848)"/>
        <path id="Path_268" data-name="Path 268" class="cls-2" d="M1171.163,249.881h-.882v-7.806H1167.4V241.3h6.624v.774h-2.881v7.806Z" transform="translate(-1004.562 -240.848)"/>
        <path id="Path_269" data-name="Path 269" class="cls-2" d="M1213.968,249.881H1213l3.7-8.581h.839l3.677,8.581h-.967l-.947-2.258h-4.43Zm1.247-3.054H1219l-1.893-4.559Z" transform="translate(-1040.356 -240.848)"/>
      </g>
    </g>
    <g id="Group_156" data-name="Group 156" transform="translate(-0.075 -0.075)">
      <path id="Path_270" data-name="Path 270" class="cls-3" d="M28.769,221.773a3.543,3.543,0,0,0-5.032,0l-5.763,5.763a3.558,3.558,0,0,0,5.032,5.032l5.763-5.785A3.556,3.556,0,0,0,28.769,221.773Z" transform="translate(-13.269 -173.017)"/>
      <path id="Path_271" data-name="Path 271" class="cls-4" d="M106.837,211.173a3.544,3.544,0,0,0-5.032,0L93.073,219.9a3.558,3.558,0,0,0,5.032,5.032l8.731-8.731A3.583,3.583,0,0,0,106.837,211.173Z" transform="translate(-72.219 -164.696)"/>
      <path id="Path_272" data-name="Path 272" class="cls-4" d="M267.946,110.773h0a3.544,3.544,0,0,0-5.032,0l-13.441,13.441a3.558,3.558,0,1,0,5.032,5.032l13.441-13.441A3.583,3.583,0,0,0,267.946,110.773Z" transform="translate(-194.985 -86.004)"/>
      <path id="Path_273" data-name="Path 273" class="cls-3" d="M25.661,26.263,45.919,6.006a3.544,3.544,0,0,0,0-5.032h0a3.544,3.544,0,0,0-5.032,0l-13.1,13.1h0l-1.183,1.183a2.363,2.363,0,0,1-3.312,0l-.108-.108a2.363,2.363,0,0,1,0-3.312l.473-.473H23.64l1.634-1.634a3.544,3.544,0,0,0,0-5.032h0a3.544,3.544,0,0,0-5.032,0L4.178,20.8a3.544,3.544,0,0,0,0,5.032h0a3.544,3.544,0,0,0,5.032,0l5.419-5.419v.022l2.925-2.925a2.388,2.388,0,0,1,3.4,0h0a2.388,2.388,0,0,1,0,3.4l-9.505,9.505L.973,40.887a3.558,3.558,0,0,0,5.032,5.032L16.672,35.253V35.3L19.6,32.371a2.388,2.388,0,0,1,3.4,0l.043.043a2.388,2.388,0,0,1,0,3.4l-4.71,4.71a3.551,3.551,0,1,0,5.032,5.011L38.8,30.091a3.552,3.552,0,0,0-4.925-5.118l-5.118,5.118a2.388,2.388,0,0,1-3.4,0l-.065-.065a2.388,2.388,0,0,1,0-3.4Z" transform="translate(0.075 0.075)"/>
      <path id="Path_274" data-name="Path 274" class="cls-4" d="M200.066,28.688h0a3.544,3.544,0,0,0-5.032,0l-4.021,4.021-1.183,1.183a2.31,2.31,0,0,1-3.269,0l-.065-.065a2.31,2.31,0,0,1,0-3.269l.538-.538h0l4.516-4.516a3.558,3.558,0,1,0-5.032-5.032l-12.15,12.15a3.558,3.558,0,0,0,5.032,5.032l1.032-1.032.495-.495a2.31,2.31,0,0,1,3.269,0l.065.065a2.31,2.31,0,0,1,.151,3.1h.022L170.173,53.548a3.543,3.543,0,0,0,0,5.032h0a3.543,3.543,0,0,0,5.032,0L200.066,33.7A3.556,3.556,0,0,0,200.066,28.688Z" transform="translate(-132.738 -15.231)"/>
      <ellipse id="Ellipse_97" data-name="Ellipse 97" class="cls-3" cx="3.548" cy="3.548" rx="3.548" ry="3.548" transform="translate(11.107 62.998) rotate(-13.286)"/>
    </g>
  </g>
</svg>
