<svg version="1.1" id="Livello_1" xmlns="http://www.w3.org/2000/svg" x="0" y="0" viewBox="0 0 200 250" xml:space="preserve">
    <style>.st0{fill:#fff}</style>
    <switch>
        <g>
            <g id="Group-5_1_" transform="translate(124 84)">
                <g id="Group-4_4_" transform="translate(0 321)">
                    <g id="Group_4_">
                        <g id="Group-3_4_">
                            <!-- <path id="O_9_" class="st0" d="M58.7-122c2.7 0 5.1-.6 7.4-1.9 2.3-1.3 4.1-3 5.4-5.3 1.3-2.2 1.9-4.7 1.9-7.3s-.7-5.1-2-7.3-3.1-4-5.4-5.3c-2.3-1.3-4.8-1.9-7.4-1.9-2.7 0-5.1.6-7.4 1.9-2.3 1.3-4 3-5.3 5.3-1.3 2.3-1.9 4.7-1.9 7.4 0 2.6.7 5 2 7.2s3.1 4 5.4 5.2 4.6 2 7.3 2zm-.1-2.7c-3.3 0-6.1-1.1-8.4-3.4-2.3-2.3-3.5-5.1-3.5-8.3 0-3.3 1.1-6.1 3.4-8.4 2.2-2.3 5-3.4 8.4-3.4 3.3 0 6.1 1.1 8.4 3.4s3.5 5.1 3.5 8.4c0 3.4-1.1 6.2-3.4 8.4s-5.1 3.3-8.4 3.3z"/>
                            <path id="K_4_" class="st0" d="M-4.2-122v-13.5L8.5-122h3.8l-15-15.9 13.9-13H7.3l-11.5 10.8v-10.8h-3v28.9z"/>
                            <path id="O_8_" class="st0" d="M-58.4-122c2.7 0 5.1-.6 7.4-1.9 2.3-1.3 4.1-3 5.4-5.3 1.3-2.2 1.9-4.7 1.9-7.3s-.7-5.1-2-7.3-3.1-4-5.4-5.3c-2.3-1.3-4.8-1.9-7.4-1.9s-5.1.6-7.4 1.9c-2.3 1.3-4 3-5.3 5.3-1.3 2.3-1.9 4.7-1.9 7.4 0 2.6.7 5 2 7.2s3.1 4 5.4 5.2c2.2 1.4 4.7 2 7.3 2zm0-2.7c-3.3 0-6.1-1.1-8.4-3.4-2.3-2.3-3.5-5.1-3.5-8.3 0-3.3 1.1-6.1 3.4-8.4 2.2-2.3 5-3.4 8.4-3.4 3.3 0 6.1 1.1 8.4 3.4 2.3 2.3 3.5 5.1 3.5 8.4 0 3.4-1.1 6.2-3.4 8.4s-5.1 3.3-8.4 3.3z"/>
                            <path id="L_4_" class="st0" d="M-107.6-122v-2.8h-11v-26.1h-2.9v28.9z"/> -->
                        </g>
                    </g>
                </g>
                <g id="Group-2_4_">
                    <radialGradient id="Combined-Shape_1_" cx="-1005.158" cy="5035.694" r="1.045" gradientTransform="scale(128 -128) rotate(45 5575.793 3729.92)" gradientUnits="userSpaceOnUse">
                        <stop offset="0" stop-color="#f90"/>
                        <stop offset="1" stop-color="#ffb000"/>
                    </radialGradient>
                    <path id="Combined-Shape_19_" d="M-27-67v94.5h-94.5v-5.2l.2-11.4.4-8.3.8-8.3 1.3-7.8 2.2-8.8 1.7-4.9 1.4-3.4 3.5-6.6 3.9-5.7 3.9-4.4 4.9-4.4 3.9-2.8 8.3-4.6 3.4-1.4 4.9-1.7 6.5-1.7 10.1-1.7 5.9-.6 5.1-.4 10.8-.4H-27z" fill="url(#Combined-Shape_1_)"/>
                    <radialGradient id="Combined-Shape_2_" cx="-959.495" cy="5096.891" r="1.045" gradientTransform="scale(-128 128) rotate(45 5671.996 3706.138)" gradientUnits="userSpaceOnUse">
                        <stop offset="0" stop-color="#f64950"/>
                        <stop offset="1" stop-color="#fa6b24"/>
                    </radialGradient>
                    <path id="Combined-Shape_18_" d="M73.5 45.3v5.2l-.2 11.4-.4 8.3-.8 8.3-1.3 7.8-2.2 8.8-1.7 4.9-1.4 3.4L62 110l-3.9 5.7-3.9 4.4-4.9 4.4-3.9 2.8-8.3 4.6-3.4 1.4-4.9 1.7-6.5 1.7-10.1 1.7-5.9.6-5.1.4-10.8.4H-21V45.3h94.5z" fill="url(#Combined-Shape_2_)"/>
                    <radialGradient id="Combined-Shape_3_" cx="-976.5" cy="5029.18" r="1.045" gradientTransform="matrix(128 0 0 -128 124965 643863)" gradientUnits="userSpaceOnUse">
                        <stop offset="0" stop-color="#fc750d"/>
                        <stop offset="1" stop-color="#ff9700"/>
                    </radialGradient>
                    <path id="Combined-Shape_17_" d="M-121.5 33.4H-27v94.5h-5.2l-11.4-.2-8.3-.4-8.3-.8-7.8-1.3-8.8-2.2-4.9-1.7-3.4-1.4-6.6-3.5-5.7-3.9-4.4-3.9-4.4-4.9-2.8-3.9-.4-.7-4.1-7.6-1.4-3.4-1.7-4.9-1.7-6.5-1.7-10.1-.6-5.9-.4-5.1-.4-10.8-.1-11.4z" fill="url(#Combined-Shape_3_)"/>
                    <radialGradient id="Combined-Shape_4_" cx="-977.515" cy="5029.675" r="1.045" gradientTransform="matrix(128 0 0 -128 125101 643743)" gradientUnits="userSpaceOnUse">
                        <stop offset="0" stop-color="#f2216f"/>
                        <stop offset="1" stop-color="#f65246"/>
                    </radialGradient>
                    <path id="Combined-Shape_16_" d="m-4.4-55 8.3.4 8.3.8 7.8 1.3 8.8 2.2 4.9 1.7 3.4 1.4 6.6 3.5 5.7 3.9 4.4 3.9 4.4 4.9 2.8 3.9.4.7 4.1 7.6 1.4 3.4 1.7 4.9L70.4-4l1.7 10.1.6 5.9.4 5.1.4 10.9v11.4H-21v-94.5h5.2l11.4.1z" fill="url(#Combined-Shape_4_)"/>
                </g>
            </g>
        </g>
    </switch>
</svg>